<svg width="101" height="100" viewBox="0 0 101 100" fill="none" xmlns="http://www.w3.org/2000/svg">
<path d="M73.7498 27.9L40.7998 60.85L22.8498 42.95L15.7998 50L40.7998 75L80.7998 35L73.7498 27.9ZM50.7998 0C23.1998 0 0.799805 22.4 0.799805 50C0.799805 77.6 23.1998 100 50.7998 100C78.3998 100 100.8 77.6 100.8 50C100.8 22.4 78.3998 0 50.7998 0ZM50.7998 90C28.6998 90 10.7998 72.1 10.7998 50C10.7998 27.9 28.6998 10 50.7998 10C72.8998 10 90.7998 27.9 90.7998 50C90.7998 72.1 72.8998 90 50.7998 90Z" fill="#56CCF2"/>
</svg>
