<svg width="141" height="24" viewBox="0 0 141 24" fill="none" xmlns="http://www.w3.org/2000/svg">
<path d="M17.1603 7.32C15.9657 6.616 14.6857 6.04 13.3203 5.592C11.9763 5.144 10.8457 4.92 9.92832 4.92C9.20299 4.92 8.62699 5.05867 8.20032 5.336C7.79499 5.592 7.59232 5.976 7.59232 6.488C7.59232 6.97867 7.77365 7.39467 8.13632 7.736C8.49899 8.056 8.94699 8.32267 9.48032 8.536C10.0137 8.728 10.803 8.984 11.8483 9.304C13.4057 9.752 14.6857 10.2 15.6883 10.648C16.7123 11.096 17.587 11.7893 18.3123 12.728C19.0377 13.6453 19.4003 14.8507 19.4003 16.344C19.4003 17.8373 19.0057 19.1173 18.2163 20.184C17.427 21.2293 16.339 22.0187 14.9523 22.552C13.587 23.0853 12.0617 23.352 10.3763 23.352C8.52032 23.352 6.66432 23.032 4.80832 22.392C2.97365 21.7307 1.38432 20.8347 0.0403203 19.704L2.31232 15.128C3.44299 16.1307 4.77632 16.952 6.31232 17.592C7.86965 18.232 9.24565 18.552 10.4403 18.552C11.315 18.552 11.9977 18.392 12.4883 18.072C13.0003 17.752 13.2563 17.2827 13.2563 16.664C13.2563 16.152 13.0643 15.7253 12.6803 15.384C12.3177 15.0427 11.8483 14.776 11.2723 14.584C10.7177 14.3707 9.92832 14.1253 8.90432 13.848C7.36832 13.4213 6.09899 12.9947 5.09632 12.568C4.09365 12.12 3.22965 11.4587 2.50432 10.584C1.80032 9.688 1.44832 8.504 1.44832 7.032C1.44832 5.64533 1.81099 4.42933 2.53632 3.384C3.28299 2.33867 4.32832 1.53867 5.67232 0.983999C7.03765 0.407999 8.61632 0.119999 10.4083 0.119999C12.0297 0.119999 13.6297 0.354666 15.2083 0.823999C16.787 1.272 18.1737 1.88 19.3683 2.648L17.1603 7.32ZM22.3918 0.567999H40.0878V5.24H28.2478V9.432H38.9358V14.072L28.2478 14.104V18.328H40.4078V23H22.3918V0.567999ZM60.4656 23L58.9296 19.032H49.2336L47.6656 23H41.6496L51.2816 0.567999H57.2976L66.7056 23H60.4656ZM50.9936 14.552H57.2016L54.1296 6.552L50.9936 14.552ZM68.7356 0.567999H75.1036L81.5996 13.688L88.0636 0.567999H94.4316V23H89.2476L89.2156 8.792L83.4876 20.76H79.7116L73.9516 8.792V23H68.7356V0.567999ZM104.27 13.752C104.27 15.16 104.686 16.2907 105.518 17.144C106.35 17.9973 107.406 18.424 108.686 18.424C109.945 18.424 110.958 18.008 111.726 17.176C112.515 16.3227 112.91 15.1813 112.91 13.752V0.567999H118.766V13.752C118.766 15.6933 118.35 17.4 117.518 18.872C116.707 20.3227 115.534 21.4427 113.998 22.232C112.483 23.0213 110.702 23.416 108.654 23.416C106.606 23.416 104.803 23.0213 103.246 22.232C101.71 21.4427 100.515 20.3227 99.6621 18.872C98.8301 17.4 98.4141 15.6933 98.4141 13.752V0.567999H104.27V13.752ZM138.223 7.32C137.028 6.616 135.748 6.04 134.383 5.592C133.039 5.144 131.908 4.92 130.991 4.92C130.265 4.92 129.689 5.05867 129.263 5.336C128.857 5.592 128.655 5.976 128.655 6.488C128.655 6.97867 128.836 7.39467 129.199 7.736C129.561 8.056 130.009 8.32267 130.543 8.536C131.076 8.728 131.865 8.984 132.911 9.304C134.468 9.752 135.748 10.2 136.751 10.648C137.775 11.096 138.649 11.7893 139.375 12.728C140.1 13.6453 140.463 14.8507 140.463 16.344C140.463 17.8373 140.068 19.1173 139.279 20.184C138.489 21.2293 137.401 22.0187 136.015 22.552C134.649 23.0853 133.124 23.352 131.439 23.352C129.583 23.352 127.727 23.032 125.871 22.392C124.036 21.7307 122.447 20.8347 121.103 19.704L123.375 15.128C124.505 16.1307 125.839 16.952 127.375 17.592C128.932 18.232 130.308 18.552 131.503 18.552C132.377 18.552 133.06 18.392 133.551 18.072C134.063 17.752 134.319 17.2827 134.319 16.664C134.319 16.152 134.127 15.7253 133.743 15.384C133.38 15.0427 132.911 14.776 132.335 14.584C131.78 14.3707 130.991 14.1253 129.967 13.848C128.431 13.4213 127.161 12.9947 126.159 12.568C125.156 12.12 124.292 11.4587 123.567 10.584C122.863 9.688 122.511 8.504 122.511 7.032C122.511 5.64533 122.873 4.42933 123.599 3.384C124.345 2.33867 125.391 1.53867 126.735 0.983999C128.1 0.407999 129.679 0.119999 131.471 0.119999C133.092 0.119999 134.692 0.354666 136.271 0.823999C137.849 1.272 139.236 1.88 140.431 2.648L138.223 7.32Z" fill="#343434"/>
</svg>
